# MagicaVoxel @ Ephtracy

# group
o 

# material
mtllib arcade_game_cosole_bottom.mtl
usemtl palette

# normals
vn -1 0 0
vn 1 0 0
vn 0 0 1
vn 0 0 -1
vn 0 -1 0
vn 0 1 0

# texcoords
vt 0.0644531 0.5
vt 0.994141 0.5

# verts
v -5.3 0 0.9
v -5.3 0 -2
v -5.3 0.1 0.8
v -5.3 0.1 -2
v -5.3 2.1 2
v -5.3 2.1 0.9
v -5.3 2.2 1.9
v -5.3 2.2 0.8
v -5.3 4.9 1.9
v -5.3 4.9 -2
v -5.3 5 2
v -5.3 5 -2
v 5.1 2.4 2
v 5.1 2.4 1.9
v 5.1 2.4 0.9
v 5.1 2.9 2
v 5.1 2.9 1.9
v 5.1 2.9 0.9
v -5.2 2.4 2
v -5.2 2.4 1.9
v -5.2 2.4 0.9
v -5.2 2.9 2
v -5.2 2.9 1.9
v -5.2 2.9 0.9
v 5.2 0 0.9
v 5.2 0 -2
v 5.2 0.1 0.8
v 5.2 0.1 -2
v 5.2 2.1 2
v 5.2 2.1 0.9
v 5.2 2.2 1.9
v 5.2 2.2 0.8
v 5.2 4.9 1.9
v 5.2 4.9 -2
v 5.2 5 2
v 5.2 5 -2
v -5.3 2.1 2
v -5.3 5 2
v -5.2 2.1 2
v -5.2 2.3 2
v -5.2 2.4 2
v -5.2 2.9 2
v -5.2 3 2
v -5.2 4.9 2
v 5.1 2.1 2
v 5.1 2.3 2
v 5.1 2.4 2
v 5.1 2.9 2
v 5.1 3 2
v 5.1 4.9 2
v 5.2 2.1 2
v 5.2 5 2
v -5.3 0 0.9
v -5.3 2.1 0.9
v -5.2 0 0.9
v -5.2 2.1 0.9
v -5.2 2.4 0.9
v -5.2 2.9 0.9
v 5.1 0 0.9
v 5.1 2.1 0.9
v 5.1 2.4 0.9
v 5.1 2.9 0.9
v 5.2 0 0.9
v 5.2 2.1 0.9
v -5.3 0 -2
v -5.3 0.1 -2
v -5.3 4.9 -2
v -5.3 5 -2
v -5.2 0 -2
v -5.2 0.1 -2
v -5.2 4.9 -2
v -5.2 5 -2
v 5.1 0 -2
v 5.1 0.1 -2
v 5.1 4.9 -2
v 5.1 5 -2
v 5.2 0 -2
v 5.2 0.1 -2
v 5.2 4.9 -2
v 5.2 5 -2
v -5.3 0 0.9
v -5.2 0 0.9
v 5.1 0 0.9
v 5.2 0 0.9
v -5.3 0 -2
v -5.2 0 -2
v 5.1 0 -2
v 5.2 0 -2
v -5.3 2.1 2
v -5.2 2.1 2
v 5.1 2.1 2
v 5.2 2.1 2
v -5.3 2.1 0.9
v -5.2 2.1 0.9
v 5.1 2.1 0.9
v 5.2 2.1 0.9
v -5.2 2.9 2
v 5.1 2.9 2
v -5.2 2.9 1.9
v 5.1 2.9 1.9
v -5.2 2.9 0.9
v 5.1 2.9 0.9
v -5.2 2.4 2
v 5.1 2.4 2
v -5.2 2.4 1.9
v 5.1 2.4 1.9
v -5.2 2.4 0.9
v 5.1 2.4 0.9
v -5.3 5 2
v 5.2 5 2
v -5.2 5 1.9
v 5.1 5 1.9
v -5.3 5 -2
v -5.2 5 -2
v 5.1 5 -2
v 5.2 5 -2

# faces
f 3/2/1 2/2/1 1/2/1
f 4/2/1 2/2/1 3/2/1
f 6/2/1 3/2/1 1/2/1
f 7/2/1 6/2/1 5/2/1
f 8/1/1 4/1/1 3/1/1
f 8/2/1 6/2/1 7/2/1
f 8/2/1 3/2/1 6/2/1
f 9/2/1 7/2/1 5/2/1
f 9/1/1 8/1/1 7/1/1
f 10/1/1 4/1/1 8/1/1
f 10/1/1 8/1/1 9/1/1
f 11/2/1 9/2/1 5/2/1
f 11/2/1 10/2/1 9/2/1
f 12/2/1 10/2/1 11/2/1
f 16/2/1 14/2/1 13/2/1
f 17/1/1 15/1/1 14/1/1
f 17/2/1 14/2/1 16/2/1
f 18/1/1 15/1/1 17/1/1
f 19/2/2 20/2/2 22/2/2
f 20/1/2 21/1/2 23/1/2
f 22/2/2 20/2/2 23/2/2
f 23/1/2 21/1/2 24/1/2
f 25/2/2 26/2/2 27/2/2
f 27/2/2 26/2/2 28/2/2
f 25/2/2 27/2/2 30/2/2
f 29/2/2 30/2/2 31/2/2
f 27/1/2 28/1/2 32/1/2
f 31/2/2 30/2/2 32/2/2
f 30/2/2 27/2/2 32/2/2
f 29/2/2 31/2/2 33/2/2
f 31/1/2 32/1/2 33/1/2
f 32/1/2 28/1/2 34/1/2
f 33/1/2 32/1/2 34/1/2
f 29/2/2 33/2/2 35/2/2
f 33/2/2 34/2/2 35/2/2
f 35/2/2 34/2/2 36/2/2
f 39/2/3 38/2/3 37/2/3
f 40/2/3 38/2/3 39/2/3
f 41/2/3 38/2/3 40/2/3
f 42/2/3 38/2/3 41/2/3
f 43/2/3 38/2/3 42/2/3
f 44/2/3 38/2/3 43/2/3
f 45/1/3 40/1/3 39/1/3
f 46/2/3 41/2/3 40/2/3
f 46/1/3 40/1/3 45/1/3
f 47/2/3 41/2/3 46/2/3
f 48/2/3 43/2/3 42/2/3
f 49/1/3 44/1/3 43/1/3
f 49/2/3 43/2/3 48/2/3
f 50/2/3 38/2/3 44/2/3
f 50/1/3 44/1/3 49/1/3
f 51/2/3 49/2/3 48/2/3
f 51/2/3 48/2/3 47/2/3
f 51/2/3 50/2/3 49/2/3
f 51/2/3 47/2/3 46/2/3
f 51/2/3 46/2/3 45/2/3
f 52/2/3 38/2/3 50/2/3
f 52/2/3 50/2/3 51/2/3
f 55/2/3 54/2/3 53/2/3
f 56/2/3 54/2/3 55/2/3
f 59/1/3 56/1/3 55/1/3
f 60/1/3 56/1/3 59/1/3
f 61/1/3 58/1/3 57/1/3
f 62/1/3 58/1/3 61/1/3
f 63/2/3 60/2/3 59/2/3
f 64/2/3 60/2/3 63/2/3
f 65/2/4 66/2/4 69/2/4
f 66/1/4 67/1/4 70/1/4
f 69/2/4 66/2/4 70/2/4
f 67/2/4 68/2/4 71/2/4
f 70/1/4 67/1/4 71/1/4
f 71/2/4 68/2/4 72/2/4
f 69/1/4 70/1/4 73/1/4
f 70/1/4 71/1/4 73/1/4
f 71/1/4 72/1/4 73/1/4
f 73/1/4 72/1/4 74/1/4
f 74/1/4 72/1/4 75/1/4
f 75/1/4 72/1/4 76/1/4
f 73/2/4 74/2/4 77/2/4
f 74/1/4 75/1/4 78/1/4
f 77/2/4 74/2/4 78/2/4
f 75/2/4 76/2/4 79/2/4
f 78/1/4 75/1/4 79/1/4
f 79/2/4 76/2/4 80/2/4
f 85/2/5 82/2/5 81/2/5
f 86/1/5 83/1/5 82/1/5
f 86/2/5 82/2/5 85/2/5
f 87/2/5 84/2/5 83/2/5
f 87/1/5 83/1/5 86/1/5
f 88/2/5 84/2/5 87/2/5
f 93/2/5 90/2/5 89/2/5
f 94/1/5 91/1/5 90/1/5
f 94/2/5 90/2/5 93/2/5
f 95/2/5 92/2/5 91/2/5
f 95/1/5 91/1/5 94/1/5
f 96/2/5 92/2/5 95/2/5
f 99/2/5 98/2/5 97/2/5
f 100/2/5 98/2/5 99/2/5
f 101/1/5 100/1/5 99/1/5
f 102/1/5 100/1/5 101/1/5
f 103/2/6 104/2/6 105/2/6
f 105/2/6 104/2/6 106/2/6
f 105/1/6 106/1/6 107/1/6
f 107/1/6 106/1/6 108/1/6
f 109/2/6 110/2/6 111/2/6
f 111/2/6 110/2/6 112/2/6
f 109/2/6 111/2/6 113/2/6
f 111/1/6 112/1/6 114/1/6
f 113/2/6 111/2/6 114/2/6
f 112/2/6 110/2/6 115/2/6
f 114/1/6 112/1/6 115/1/6
f 115/2/6 110/2/6 116/2/6
